<svg xmlns="http://www.w3.org/2000/svg" width="24" height="24" viewBox="0 0 24 24" fill="none">
<path d="M2.85715 7.42836H21.1429M5.14286 2.85693H18.8571C19.4634 2.85693 20.0447 3.09775 20.4734 3.5264C20.902 3.95506 21.1429 4.53644 21.1429 5.14265V18.8569C21.1429 19.4631 20.902 20.0445 20.4734 20.4732C20.0447 20.9018 19.4634 21.1426 18.8571 21.1426H5.14286C4.53665 21.1426 3.95527 20.9018 3.52662 20.4732C3.09796 20.0445 2.85715 19.4631 2.85715 18.8569V5.14265C2.85715 4.53644 3.09796 3.95506 3.52662 3.5264C3.95527 3.09775 4.53665 2.85693 5.14286 2.85693Z" stroke="black" stroke-linecap="round" stroke-linejoin="round"/>
<path d="M12 13.1426C12.6312 13.1426 13.1429 12.631 13.1429 11.9998C13.1429 11.3686 12.6312 10.8569 12 10.8569C11.3688 10.8569 10.8571 11.3686 10.8571 11.9998C10.8571 12.631 11.3688 13.1426 12 13.1426Z" fill="black"/>
<path d="M7.42856 13.1426C8.05975 13.1426 8.57142 12.631 8.57142 11.9998C8.57142 11.3686 8.05975 10.8569 7.42856 10.8569C6.79738 10.8569 6.28571 11.3686 6.28571 11.9998C6.28571 12.631 6.79738 13.1426 7.42856 13.1426Z" fill="black"/>
<path d="M7.42858 17.7139C8.05976 17.7139 8.57144 17.2023 8.57144 16.5711C8.57144 15.9399 8.05976 15.4282 7.42858 15.4282C6.7974 15.4282 6.28572 15.9399 6.28572 16.5711C6.28572 17.2023 6.7974 17.7139 7.42858 17.7139Z" fill="black"/>
</svg>